<svg xmlns="http://www.w3.org/2000/svg" viewBox="0 0 960 540" role="img" aria-labelledby="title desc">
  <title id="title">IntelligentMaintenancePlanning preview</title>
  <desc id="desc">A maintenance dispatch dashboard with work packages, resources, travel time, and optimized routes.</desc>
  <rect width="960" height="540" fill="#f6f8fb"/>
  <rect x="54" y="54" width="852" height="432" rx="24" fill="#ffffff" stroke="#d8dee8"/>
  <text x="86" y="108" font-family="Inter, Arial, sans-serif" font-size="27" font-weight="700" fill="#273241">Maintenance dispatch</text>
  <text x="86" y="137" font-family="Inter, Arial, sans-serif" font-size="14" fill="#667284">multi-resource routing with workload and travel-time constraints</text>

  <g transform="translate(86 182)">
    <rect width="250" height="236" rx="18" fill="#eef4fb" stroke="#b4c5da"/>
    <text x="24" y="38" font-family="Inter, Arial, sans-serif" font-size="16" font-weight="700" fill="#33475f">work packages</text>
    <g font-family="Inter, Arial, sans-serif" font-size="13" fill="#33475f">
      <rect x="24" y="64" width="192" height="34" rx="8" fill="#ffffff" stroke="#cdd8e6"/>
      <text x="42" y="86">Pump A - 42 min</text>
      <rect x="24" y="110" width="166" height="34" rx="8" fill="#ffffff" stroke="#cdd8e6"/>
      <text x="42" y="132">Valve C - 25 min</text>
      <rect x="24" y="156" width="202" height="34" rx="8" fill="#ffffff" stroke="#cdd8e6"/>
      <text x="42" y="178">Sensor D - 36 min</text>
    </g>
  </g>

  <g transform="translate(382 182)">
    <rect width="198" height="236" rx="18" fill="#f8f3e8" stroke="#dac492"/>
    <text x="28" y="38" font-family="Inter, Arial, sans-serif" font-size="16" font-weight="700" fill="#765f25">solver</text>
    <circle cx="74" cy="92" r="22" fill="#d7a53e"/>
    <circle cx="132" cy="132" r="22" fill="#e8c878"/>
    <circle cx="72" cy="174" r="22" fill="#b9892a"/>
    <path d="M92 100 L112 122 M112 142 L90 166 M74 114 V152" stroke="#6f561d" stroke-width="5" stroke-linecap="round"/>
    <text x="28" y="214" font-family="Inter, Arial, sans-serif" font-size="13" fill="#765f25">OR-Tools VRPTW</text>
  </g>

  <g transform="translate(626 182)">
    <rect width="234" height="236" rx="18" fill="#eef8f2" stroke="#add0ba"/>
    <text x="24" y="38" font-family="Inter, Arial, sans-serif" font-size="16" font-weight="700" fill="#2d6046">route plan</text>
    <path d="M54 164 C92 76 124 184 178 84" fill="none" stroke="#2f8c5d" stroke-width="7" stroke-linecap="round"/>
    <circle cx="54" cy="164" r="12" fill="#2f8c5d"/>
    <circle cx="104" cy="96" r="12" fill="#72b58c"/>
    <circle cx="142" cy="148" r="12" fill="#4d9c70"/>
    <circle cx="178" cy="84" r="12" fill="#2f8c5d"/>
    <text x="24" y="214" font-family="Inter, Arial, sans-serif" font-size="13" fill="#2d6046">JSON API returns assignments</text>
  </g>

  <g fill="none" stroke="#697586" stroke-width="4" stroke-linecap="round">
    <path d="M346 300 H370"/>
    <path d="M590 300 H614"/>
  </g>
  <g fill="#697586">
    <path d="M370 300 l-10 -7 v14z"/>
    <path d="M614 300 l-10 -7 v14z"/>
  </g>
</svg>
